# xmcd
# 
# Track frame offsets:
#   300
#   15045
#   26150
#   47430
#   64025
#   79405
#   94482
#   109792
#   124895
#   136120
#   150945
#   171827
#   186062
#   201552
# 
# Disc length: 2878 seconds
# 
# Revision: 1
# Processed by: cddbd v1.5.1PL2 Copyright (c) Steve Scherf et al.
# Submitted via: Synapstar 1.0 
# 
DISCID=b50b3a0e
DTITLE=Various Artist - SD016 - Country Hits Today
DYEAR=1900
DGENRE=Country
TTITLE0=Alan Jackson - I Don't Even Know Your Name
TTITLE1=John Michael Mongomery - Sold
TTITLE2=Brooks and Dunn - You're Gonna Miss Me When I'm Gone
TTITLE3=Vince Gill - You Better Think Twice
TTITLE4=Reba McEntire - And Still
TTITLE5=Clay Walker - My Heart Will Never Know
TTITLE6=Neal McCoy - They're Playing Our Song
TTITLE7=Pam Tillis - Inbetween Dances
TTITLE8=Shenandoah - Darned If I Don't, Danged If I Do
TTITLE9=Rick Trevino - Bobbie Ann Mason
TTITLE10=Little Texas - Southern Grace
TTITLE11=Joe Diffie - I'm In Love With A Capital "U"
TTITLE12=Doug Stone - Faith In Me, Faith In You
TTITLE13=Trisha Yearwood - You Can Sleep While I Drive
EXTD=MediaType: Karaoke CD+G Producer: StarDisc
EXTT0=
EXTT1=
EXTT2=
EXTT3=
EXTT4=
EXTT5=
EXTT6=
EXTT7=
EXTT8=
EXTT9=
EXTT10=
EXTT11=
EXTT12=
EXTT13=
PLAYORDER=
